<svg height="512pt" viewBox="0 0 512 512" width="512pt" xmlns="http://www.w3.org/2000/svg"><path d="m487.074219 323.929688c7.972656 0 13.636719 7.84375 11.042969 15.382812-34.566407 100.480469-129.902344 172.6875-242.117188 172.6875-126.050781 0-230.820312-91.101562-252.066406-211.050781-.550782-3.105469 1.847656-5.953125 5-5.953125h210.28125c42.640625 0 77.207031-34.566406 77.207031-77.210938v-200.539062c0-7.433594 6.871094-12.984375 14.140625-11.40625 21.847656 4.746094 42.65625 12.28125 62.035156 22.214844 8.308594 4.257812 13.472656 12.871093 13.472656 22.207031v268.667969c0 2.761718 2.238282 5 5 5zm0 0" fill="#ebae56"/><path d="m370 335v-308.257812c84.167969 41.933593 142 128.835937 142 229.257812 0 29.425781-4.980469 57.683594-14.117188 84h-122.882812c-2.761719 0-5-2.238281-5-5zm0 0" fill="#fff2b4"/><path d="m512 256c0 10.703125-.667969 21.253906-1.941406 31.613281-17.601563 12.535157-39.136719 19.910157-62.390625 19.910157-59.464844 0-107.667969-48.203126-107.667969-107.667969 0-59.460938 48.203125-107.667969 107.667969-107.667969 1.730469 0 3.449219.046875 5.160156.128906 36.941406 44.375 59.171875 101.429688 59.171875 163.683594zm-512 0c0 15.625 1.40625 30.921875 4.085938 45.773438 10.65625 5.257812 22.648437 8.222656 35.335937 8.222656h192c44.183594 0 80-35.816406 80-80v-223.960938c-17.847656-3.941406-36.390625-6.035156-55.421875-6.035156-141.386719 0-256 114.613281-256 256zm0 0" fill="#607882"/><path d="m420.75 304.132812c-46.4375-11.953124-80.75-54.109374-80.75-104.277343s34.3125-92.324219 80.75-104.273438c-34.328125 19.664063-57.75 58.976563-57.75 104.273438s23.421875 84.609375 57.75 104.277343zm-270.75-281.21875c-49.351562 22.480469-90.300781 60.175782-116.878906 107.085938h106.878906c5.523438 0 10-4.476562 10-10zm20-8.09375v105.179688c0 5.523438 4.476562 10 10 10h106.421875c5.523437 0 10-4.476562 10-10v-116.8125c-13.167969-2.089844-26.664063-3.1875-40.421875-3.1875-30.171875 0-59.117188 5.234375-86 14.820312zm-170 241.179688c0 9 .46875 17.890625 1.375 26.648438 10.707031 7.757812 23.847656 12.347656 38.046875 12.347656h192c35.898437 0 65-29.101563 65-65v-69.996094c0-5.523438-4.476563-10-10-10h-263.507813c-14.710937 32.300781-22.914062 68.191406-22.914062 106zm0 0" fill="#495959"/><path d="m362.585938 199.855469c0-46.988281 38.09375-85.078125 85.078124-85.078125 8.398438 0 16.503907 1.234375 24.167969 3.503906 25.34375 39.632812 40.066407 86.710938 40.160157 137.222656-15.597657 18.015625-38.625 29.429688-64.328126 29.429688-46.984374 0-85.078124-38.089844-85.078124-85.078125zm0 0" fill="#8f4a4b"/><path d="m393.574219 154.335938c-1.105469-1.101563-1.65625-2.546876-1.65625-3.992188s.550781-2.890625 1.65625-3.992188c14.289062-14.292968 33.292969-22.164062 53.503906-22.164062 11.5 0 22.609375 2.558594 32.683594 7.386719 3.660156 6.566406 7.042969 13.308593 10.125 20.210937-11.804688-10.535156-26.859375-16.304687-42.808594-16.304687-17.195313 0-33.359375 6.695312-45.519531 18.855469-2.203125 2.207031-5.78125 2.207031-7.984375 0zm15.972656 83.054687c20.695313 20.695313 54.367187 20.695313 75.066406 0 2.203125-2.207031 2.203125-5.78125 0-7.988281-2.207031-2.203125-5.78125-2.203125-7.988281 0-16.292969 16.292968-42.800781 16.292968-59.09375 0-2.207031-2.203125-5.78125-2.203125-7.988281 0-1.101563 1.105468-1.652344 2.550781-1.652344 3.996094 0 1.441406.550781 2.886718 1.65625 3.992187zm15.96875-15.972656c11.890625 11.886719 31.234375 11.886719 43.125 0 2.207031-2.207031 2.207031-5.78125 0-7.984375-2.203125-2.207032-5.78125-2.207032-7.984375-.003906-7.488281 7.488281-19.667969 7.488281-27.152344 0-2.207031-2.203126-5.78125-2.203126-7.988281.003906-1.101563 1.101562-1.652344 2.546875-1.652344 3.992187 0 1.441407.550781 2.890625 1.652344 3.992188zm11.773437-21.5625c0 5.40625 4.382813 9.789062 9.789063 9.789062s9.789063-4.382812 9.789063-9.789062-4.382813-9.789063-9.789063-9.789063-9.789063 4.382813-9.789063 9.789063zm63.292969 45.519531c-2.203125-2.203125-5.78125-2.203125-7.984375 0-12.160156 12.160156-28.324218 18.855469-45.519531 18.855469s-33.359375-6.695313-45.519531-18.855469c-2.203125-2.203125-5.78125-2.203125-7.984375 0-1.105469 1.101562-1.65625 2.546875-1.65625 3.992188 0 1.445312.550781 2.890624 1.65625 3.992187 14.289062 14.292969 33.292969 22.164063 53.503906 22.164063s39.214844-7.871094 53.503906-22.164063c2.207031-2.203125 2.207031-5.777344 0-7.984375zm-15.96875-75.066406c2.203125-2.207032 2.203125-5.78125 0-7.988282-20.699219-20.695312-54.371093-20.695312-75.066406 0-1.105469 1.105469-1.65625 2.546876-1.65625 3.992188s.550781 2.890625 1.65625 3.996094c2.203125 2.203125 5.777344 2.203125 7.984375 0 16.292969-16.292969 42.804688-16.292969 59.097656 0 2.203125 2.203125 5.777344 2.203125 7.984375 0zm-15.972656 15.96875c2.207031-2.203125 2.203125-5.777344 0-7.984375-11.890625-11.890625-31.234375-11.890625-43.125 0-1.101563 1.101562-1.652344 2.546875-1.652344 3.992187 0 1.445313.550781 2.890625 1.652344 3.992188 2.207031 2.207031 5.78125 2.207031 7.988281 0 7.484375-7.484375 19.664063-7.484375 27.148438 0 2.207031 2.207031 5.78125 2.207031 7.988281 0zm0 0" fill="#a65759"/><path d="m468.09375 443.921875c3.238281 12.125.71875 24.390625-7.035156 34.253906-1.050782 1.335938-3.050782 1.941407-5.054688 1.53125l-133.820312-27.484375-251.269532-59.023437c-6.515624-1.53125-10.828124-6.902344-9.75-12.148438l1.128907-5.484375c.507812-2.480468 2.144531-4.5 4.410156-5.832031-1.765625-2.0625-2.65625-4.597656-2.265625-7.171875l.835938-5.535156c.800781-5.296875 6.703124-8.847656 13.34375-8.03125l256.191406 31.429687 135.074218 20.441407c2.023438.308593 3.691407 1.566406 4.214844 3.183593 3.871094 11.9375 1.996094 24.316407-5.234375 34.578125-.976562 1.386719-2.941406 2.09375-4.964843 1.789063l-1.351563-.203125 1.503906.308594c2.003907.410156 3.605469 1.757812 4.042969 3.398437zm0 0" fill="#ffe899"/><path d="m468.085938 443.886719c.929687 3.476562 1.375 6.964843 1.371093 10.40625-1.355469 3.160156-3.136719 6.191406-5.363281 9.019531-1.039062 1.324219-3.042969 1.910156-5.03125 1.503906l-133.820312-27.484375-262.953126-61.765625c.511719-2.480468 2.144532-4.503906 4.414063-5.832031 1.867187 2.179687 4.71875 3.839844 8.101563 4.449219l254.015624 45.789062 133.726563 20.242188 1.503906.308594c1.988281.410156 3.597657 1.738281 4.035157 3.363281zm6.003906-39.867188c-.523438-1.605469-2.199219-2.84375-4.203125-3.148437l-135.078125-20.445313-256.191406-31.429687c-6.640626-.816406-12.542969 2.734375-13.34375 8.03125l265.824218 47.917968 135.074219 20.445313c2.003906.300781 3.976563-.386719 4.945313-1.761719 2.078124-2.941406 3.699218-6.0625 4.882812-9.292968-.175781-3.4375-.800781-6.894532-1.910156-10.316407zm0 0" fill="#fff2b4"/><path d="m468.09375 443.921875c3.238281 12.125.71875 24.390625-7.035156 34.253906-1.050782 1.335938-3.050782 1.941407-5.054688 1.53125l-124.023437-25.476562 6.734375-32.789063 5.980468-39.519531 125.1875 18.949219c2.023438.304687 3.691407 1.566406 4.214844 3.179687 3.871094 11.9375 1.996094 24.320313-5.234375 34.578125-.816406 1.164063-2.335937 1.847656-3.996093 1.855469l-.050782.25c1.636719.558594 2.898438 1.761719 3.277344 3.1875zm0 0" fill="#fc544d"/><path d="m468.09375 443.921875c.925781 3.464844 1.367188 6.941406 1.363281 10.371094-1.351562 3.152343-3.125 6.175781-5.339843 8.996093-1.050782 1.332032-3.050782 1.9375-5.054688 1.527344l-124.027344-25.472656 3.679688-17.902344-.003906.03125 123.835937 18.742188 1.503906.308594c2.003907.410156 3.605469 1.757812 4.042969 3.398437zm6.003906-39.871094c-.523437-1.613281-2.191406-2.875-4.210937-3.179687l-125.191407-18.949219-3.710937 24.519531 125.191406 18.949219c2.019531.304687 3.984375-.402344 4.964844-1.792969 2.066406-2.929687 3.679687-6.042968 4.863281-9.261718-.179687-3.425782-.800781-6.871094-1.90625-10.285157zm0 0" fill="#fd6c55"/><path d="m231.585938 99.765625c-.539063-.539063-1.066407-1.085937-1.582032-1.640625-21.9375-23.539062 12.390625-57.871094 35.933594-35.933594.550781.515625 1.097656 1.042969 1.636719 1.582032 15.101562 15.101562 20.578125 35.46875 15.367187 51.359374-15.886718 5.210938-36.253906-.265624-51.355468-15.367187zm0 0" fill="#fd7d43"/><path d="m203.421875 63.773438c.539063-.539063 1.082031-1.066407 1.636719-1.582032 23.539062-21.9375 57.871094 12.394532 35.933594 35.933594-.515626.554688-1.042969 1.097656-1.582032 1.640625-15.101562 15.101563-35.46875 20.578125-51.359375 15.367187-5.207031-15.890624.265625-36.253906 15.371094-51.359374zm0 0" fill="#fdac89"/><path d="m188.050781 21.921875c15.890625-5.210937 36.257813.265625 51.359375 15.367187.539063.539063 1.066406 1.085938 1.582032 1.636719 21.9375 23.542969-12.390626 57.875-35.933594 35.933594-.550782-.515625-1.097656-1.042969-1.636719-1.582031-15.105469-15.101563-20.578125-35.46875-15.371094-51.355469zm0 0" fill="#fd7d43"/><path d="m282.941406 21.921875c5.210938 15.890625-.265625 36.253906-15.367187 51.355469-.539063.539062-1.085938 1.066406-1.636719 1.582031-23.542969 21.941406-57.871094-12.390625-35.933594-35.933594.515625-.550781 1.042969-1.097656 1.582032-1.636719 15.101562-15.101562 35.46875-20.578124 51.355468-15.367187zm0 0" fill="#fdac89"/><path d="m95.785156 112.496094c-7.808594 7.8125-20.472656 7.8125-28.28125 0l-13.617187-13.613282c8.320312-10.84375 17.546875-20.835937 27.488281-30.109374 12.113281-11.300782 25-21.773438 39.4375-30.210938l10.332031 10.296875c7.808594 7.808594 7.808594 20.472656 0 28.28125zm0 0" fill="#73d37a"/><path d="m111.367188 96.917969-15.582032 15.578125c-7.808594 7.8125-20.472656 7.8125-28.28125 0l-13.617187-13.613282c3.109375-3.996093 6.304687-7.945312 9.644531-11.746093 8.109375 7.921875 19.238281 12.863281 31.46875 12.863281 5.777344 0 11.292969-1.101562 16.367188-3.082031zm0 0" fill="#49cb5c"/><path d="m66 267c-16.570312 0-30-13.429688-30-30v-40c0-16.570312 13.429688-30 30-30s30 13.429688 30 30v40c0 16.570312-13.429688 30-30 30zm120-30v-40c0-16.570312-13.429688-30-30-30s-30 13.429688-30 30v40c0 16.570312 13.429688 30 30 30s30-13.429688 30-30zm90 0v-40c0-16.570312-13.429688-30-30-30s-30 13.429688-30 30v40c0 16.570312 13.429688 30 30 30s30-13.429688 30-30zm0 0" fill="#fff5f5"/><path d="m50 267c-16.570312 0-30-13.429688-30-30v-40c0-16.570312 13.429688-30 30-30s30 13.429688 30 30v40c0 16.570312-13.429688 30-30 30zm120-30v-40c0-16.570312-13.429688-30-30-30s-30 13.429688-30 30v40c0 16.570312 13.429688 30 30 30s30-13.429688 30-30zm90 0v-40c0-16.570312-13.429688-30-30-30s-30 13.429688-30 30v40c0 16.570312 13.429688 30 30 30s30-13.429688 30-30zm0 0" fill="#fd8e82"/><path d="m80 197v40c0 11.007812-5.933594 20.621094-14.769531 25.835938 5.84375 3.492187 9.769531 9.859374 9.769531 17.164062h-10c-5.980469 0-11.335938-2.640625-15-6.800781-3.664062 4.160156-9.019531 6.800781-15 6.800781h-10c0-11.046875 8.953125-20 20-20h.015625c-3.769531-5.015625-6.015625-11.242188-6.015625-18v-50.003906c0-10.371094 5.265625-19.515625 13.269531-24.902344 15.507813 1.164062 27.730469 14.101562 27.730469 29.90625zm62.269531-29.90625c-8.003906 5.386719-13.269531 14.53125-13.269531 24.902344v50.003906c0 6.757812 2.246094 12.984375 6.015625 18h-.015625c-11.046875 0-20 8.953125-20 20h10c5.980469 0 11.335938-2.640625 15-6.800781 3.664062 4.160156 9.019531 6.800781 15 6.800781h10c0-7.304688-3.925781-13.671875-9.769531-17.164062 8.835937-5.214844 14.769531-14.828126 14.769531-25.835938v-40c0-15.804688-12.222656-28.742188-27.730469-29.90625zm117.730469 69.90625v-40c0-15.804688-12.222656-28.742188-27.730469-29.90625-8.003906 5.386719-13.269531 14.53125-13.269531 24.902344v50.003906c0 6.757812 2.246094 12.984375 6.015625 18h-.015625c-11.046875 0-20 8.953125-20 20h10c5.980469 0 11.335938-2.640625 15-6.800781 3.664062 4.160156 9.019531 6.800781 15 6.800781h10c0-7.304688-3.925781-13.671875-9.769531-17.164062 8.835937-5.214844 14.769531-14.828126 14.769531-25.835938zm0 0" fill="#ffa799"/><path d="m71.554688 206.238281c-.699219 2.761719-3.183594 4.601563-5.90625 4.601563-.496094 0-1-.0625-1.503907-.191406-7.664062-1.941407-20.621093-1.941407-28.289062 0-3.265625.832031-6.582031-1.144532-7.410157-4.410157-.828124-3.261719 1.148438-6.582031 4.410157-7.410156 9.617187-2.4375 24.675781-2.4375 34.289062 0 3.261719.828125 5.238281 4.148437 4.410157 7.410156zm-4.410157-27.410156c-9.617187-2.4375-24.675781-2.4375-34.289062 0-3.261719.828125-5.238281 4.144531-4.410157 7.410156.828126 3.265625 4.140626 5.242188 7.410157 4.410157 7.664062-1.945313 20.621093-1.945313 28.289062 0 .503907.128906 1.007813.191406 1.503907.191406 2.722656 0 5.207031-1.839844 5.90625-4.601563.828124-3.261719-1.148438-6.582031-4.410157-7.410156zm0 60c-9.617187-2.4375-24.675781-2.4375-34.289062 0-3.261719.828125-5.238281 4.144531-4.410157 7.410156.828126 3.265625 4.140626 5.242188 7.410157 4.410157 7.664062-1.945313 20.621093-1.945313 28.289062 0 .503907.128906 1.007813.191406 1.503907.191406 2.722656 0 5.207031-1.839844 5.90625-4.601563.828124-3.261719-1.148438-6.582031-4.410157-7.410156zm0-20c-9.617187-2.4375-24.675781-2.4375-34.289062 0-3.261719.828125-5.238281 4.144531-4.410157 7.410156.828126 3.265625 4.140626 5.242188 7.410157 4.410157 7.664062-1.945313 20.621093-1.945313 28.289062 0 .503907.128906 1.007813.191406 1.503907.191406 2.722656 0 5.207031-1.839844 5.90625-4.601563.828124-3.261719-1.148438-6.582031-4.410157-7.410156zm90-40c-9.617187-2.4375-24.675781-2.4375-34.289062 0-3.261719.828125-5.238281 4.144531-4.410157 7.410156.828126 3.265625 4.140626 5.242188 7.410157 4.410157 7.664062-1.945313 20.621093-1.945313 28.289062 0 .503907.128906 1.007813.191406 1.503907.191406 2.722656 0 5.207031-1.839844 5.90625-4.601563.828124-3.261719-1.148438-6.582031-4.410157-7.410156zm0 20c-9.617187-2.4375-24.675781-2.4375-34.289062 0-3.261719.828125-5.238281 4.144531-4.410157 7.410156.828126 3.265625 4.140626 5.242188 7.410157 4.410157 7.664062-1.945313 20.621093-1.945313 28.289062 0 .503907.128906 1.007813.191406 1.503907.191406 2.722656 0 5.207031-1.839844 5.90625-4.601563.828124-3.261719-1.148438-6.582031-4.410157-7.410156zm0 20c-9.617187-2.4375-24.675781-2.4375-34.289062 0-3.261719.828125-5.238281 4.144531-4.410157 7.410156.828126 3.265625 4.140626 5.242188 7.410157 4.410157 7.664062-1.945313 20.621093-1.945313 28.289062 0 .503907.128906 1.007813.191406 1.503907.191406 2.722656 0 5.207031-1.839844 5.90625-4.601563.828124-3.261719-1.148438-6.582031-4.410157-7.410156zm0 20c-9.617187-2.4375-24.675781-2.4375-34.289062 0-3.261719.828125-5.238281 4.144531-4.410157 7.410156.828126 3.265625 4.140626 5.242188 7.410157 4.410157 7.664062-1.945313 20.621093-1.945313 28.289062 0 .503907.128906 1.007813.191406 1.503907.191406 2.722656 0 5.207031-1.839844 5.90625-4.601563.828124-3.261719-1.148438-6.582031-4.410157-7.410156zm58.710938-48.179687c7.667969-1.941407 20.621093-1.941407 28.289062 0 .503907.128906 1.007813.191406 1.503907.191406 2.722656 0 5.207031-1.839844 5.90625-4.601563.828124-3.261719-1.148438-6.582031-4.410157-7.410156-9.617187-2.4375-24.675781-2.4375-34.289062 0-3.261719.828125-5.238281 4.148437-4.410157 7.410156.828126 3.265625 4.144532 5.242188 7.410157 4.410157zm31.289062 8.179687c-9.617187-2.4375-24.675781-2.4375-34.289062 0-3.261719.828125-5.238281 4.144531-4.410157 7.410156.828126 3.265625 4.140626 5.242188 7.410157 4.410157 7.664062-1.945313 20.621093-1.945313 28.289062 0 .503907.128906 1.007813.191406 1.503907.191406 2.722656 0 5.207031-1.839844 5.90625-4.601563.828124-3.261719-1.148438-6.582031-4.410157-7.410156zm0 20c-9.617187-2.4375-24.675781-2.4375-34.289062 0-3.261719.828125-5.238281 4.144531-4.410157 7.410156.828126 3.265625 4.140626 5.242188 7.410157 4.410157 7.664062-1.945313 20.621093-1.945313 28.289062 0 .503907.128906 1.007813.191406 1.503907.191406 2.722656 0 5.207031-1.839844 5.90625-4.601563.828124-3.261719-1.148438-6.582031-4.410157-7.410156zm0 20c-9.617187-2.4375-24.675781-2.4375-34.289062 0-3.261719.828125-5.238281 4.144531-4.410157 7.410156.828126 3.265625 4.140626 5.242188 7.410157 4.410157 7.664062-1.945313 20.621093-1.945313 28.289062 0 .503907.128906 1.007813.191406 1.503907.191406 2.722656 0 5.207031-1.839844 5.90625-4.601563.828124-3.261719-1.148438-6.582031-4.410157-7.410156zm0 0" fill="#fd7c66"/></svg>