<?xml version="1.0"?>
<svg xmlns="http://www.w3.org/2000/svg" xmlns:xlink="http://www.w3.org/1999/xlink" version="1.1" id="Layer_1" x="0px" y="0px" viewBox="0 0 512 512" style="enable-background:new 0 0 512 512;" xml:space="preserve" width="512px" height="512px" class=""><g><g>
	<g>
		<path d="M437.019,238.076C388.668,189.724,324.38,163.095,256,163.095s-132.668,26.629-181.02,74.981    C26.629,286.427,0,350.715,0,419.095c0,4.199,3.404,7.604,7.604,7.604s7.604-3.405,7.604-7.604    c0-64.318,25.046-124.787,70.525-170.266c45.48-45.48,105.948-70.526,170.266-70.526s124.787,25.046,170.266,70.526    c45.481,45.48,70.527,105.948,70.527,170.266c0,4.199,3.404,7.604,7.604,7.604s7.604-3.405,7.604-7.604    C512,350.714,485.371,286.427,437.019,238.076z" data-original="#000000" class="active-path" data-old_color="#000000" fill="#FFFFFF"/>
	</g>
</g><g>
	<g>
		<path d="M256,358.902c-33.19,0-60.193,27.002-60.193,60.193c0,4.199,3.404,7.604,7.604,7.604s7.604-3.405,7.604-7.604    c0-24.805,20.18-44.985,44.985-44.985c24.799,0,44.974,20.18,44.974,44.985c0,4.199,3.404,7.604,7.604,7.604    c4.2,0,7.604-3.405,7.604-7.604C316.182,385.904,289.184,358.902,256,358.902z" data-original="#000000" class="active-path" data-old_color="#000000" fill="#FFFFFF"/>
	</g>
</g><g>
	<g>
		<path d="M413.939,261.151c-42.188-42.188-98.28-65.422-157.942-65.422s-115.756,23.234-157.943,65.422    c-42.188,42.189-65.421,98.28-65.421,157.943c0,4.199,3.404,7.604,7.604,7.604c4.2,0,7.604-3.405,7.604-7.604    c0-114.778,93.379-208.158,208.157-208.158s208.157,93.38,208.157,208.158c0,4.199,3.404,7.604,7.604,7.604    c4.199,0,7.604-3.404,7.603-7.604C479.361,359.432,456.127,303.339,413.939,261.151z" data-original="#000000" class="active-path" data-old_color="#000000" fill="#FFFFFF"/>
	</g>
</g><g>
	<g>
		<path d="M358.909,258.485c-30.691-19.705-66.276-30.121-102.912-30.121c-105.169,0-190.731,85.562-190.731,190.731    c0,4.199,3.404,7.604,7.604,7.604c4.2,0,7.604-3.404,7.605-7.604c0-96.783,78.74-175.523,175.523-175.523    c33.716,0,66.461,9.582,94.696,27.71c3.532,2.27,8.238,1.243,10.507-2.29C363.468,265.457,362.443,260.754,358.909,258.485z" data-original="#000000" class="active-path" data-old_color="#000000" fill="#FFFFFF"/>
	</g>
</g><g>
	<g>
		<path d="M377.847,272.356c-3.226-2.684-8.023-2.244-10.708,0.987c-2.684,3.23-2.243,8.024,0.987,10.708    c40.287,33.49,63.393,82.712,63.393,135.044c0,4.199,3.404,7.604,7.604,7.604s7.604-3.404,7.604-7.604    C446.727,362.228,421.621,308.744,377.847,272.356z" data-original="#000000" class="active-path" data-old_color="#000000" fill="#FFFFFF"/>
	</g>
</g><g>
	<g>
		<path d="M255.997,260.999c-87.175,0-158.095,70.922-158.095,158.095c0,4.199,3.404,7.604,7.604,7.604    c4.2,0,7.604-3.405,7.604-7.604c0-78.788,64.099-142.888,142.888-142.888s142.887,64.099,142.887,142.888    c0,4.199,3.404,7.604,7.604,7.604c4.199,0,7.604-3.404,7.604-7.604C414.091,331.921,343.17,260.999,255.997,260.999z" data-original="#000000" class="active-path" data-old_color="#000000" fill="#FFFFFF"/>
	</g>
</g><g>
	<g>
		<path d="M154.396,358.849c-3.74-1.908-8.32-0.422-10.229,3.318c-9.045,17.734-13.63,36.887-13.63,56.927    c0,4.199,3.404,7.604,7.604,7.604s7.604-3.404,7.603-7.603c0-17.616,4.028-34.444,11.972-50.018    C159.623,365.337,158.137,360.757,154.396,358.849z" data-original="#000000" class="active-path" data-old_color="#000000" fill="#FFFFFF"/>
	</g>
</g><g>
	<g>
		<path d="M255.997,293.634c-39.912,0-76.538,18.346-100.489,50.332c-2.516,3.362-1.831,8.128,1.53,10.645    c3.362,2.517,8.126,1.833,10.644-1.529c21.05-28.114,53.24-44.239,88.314-44.239c60.793,0,110.251,49.459,110.251,110.252    c0,4.199,3.404,7.604,7.604,7.604c4.2,0,7.604-3.404,7.604-7.605C381.456,349.915,325.175,293.634,255.997,293.634z" data-original="#000000" class="active-path" data-old_color="#000000" fill="#FFFFFF"/>
	</g>
</g><g>
	<g>
		<path d="M255.997,326.27c-51.185,0-92.826,41.641-92.826,92.825c0,4.199,3.404,7.604,7.604,7.604s7.604-3.405,7.604-7.604    c0-42.798,34.819-77.617,77.618-77.617c42.798,0,77.617,34.819,77.617,77.617c0,4.199,3.404,7.604,7.604,7.604    c4.199,0,7.604-3.404,7.604-7.604C348.822,367.911,307.182,326.27,255.997,326.27z" data-original="#000000" class="active-path" data-old_color="#000000" fill="#FFFFFF"/>
	</g>
</g><g>
	<g>
		<path d="M256,85.301c-4.2,0-7.604,3.405-7.604,7.604v44.61c0,4.199,3.404,7.604,7.604,7.604s7.604-3.405,7.604-7.604v-44.61    C263.604,88.706,260.2,85.301,256,85.301z" data-original="#000000" class="active-path" data-old_color="#000000" fill="#FFFFFF"/>
	</g>
</g><g>
	<g>
		<path d="M392.423,115.136c-3.834-1.707-8.329,0.019-10.037,3.857l-18.131,40.759c-1.706,3.837,0.02,8.331,3.858,10.038    c1.004,0.447,2.053,0.658,3.086,0.658c2.912,0,5.691-1.682,6.951-4.515l18.131-40.759    C397.987,121.337,396.261,116.843,392.423,115.136z" data-original="#000000" class="active-path" data-old_color="#000000" fill="#FFFFFF"/>
	</g>
</g><g>
	<g>
		<path d="M495.7,187.876c-2.933-3.003-7.749-3.058-10.752-0.122l-31.897,31.187c-3.003,2.936-3.057,7.751-0.121,10.753    c1.488,1.524,3.462,2.288,5.437,2.288c1.916,0,3.835-0.721,5.315-2.167l31.897-31.187    C498.583,195.693,498.636,190.878,495.7,187.876z" data-original="#000000" class="active-path" data-old_color="#000000" fill="#FFFFFF"/>
	</g>
</g><g>
	<g>
		<path d="M147.745,159.751l-18.131-40.759c-1.706-3.836-6.203-5.564-10.037-3.857c-3.837,1.707-5.565,6.201-3.858,10.038    l18.131,40.759c1.26,2.833,4.039,4.516,6.951,4.516c1.033,0,2.082-0.211,3.086-0.659    C147.725,168.082,149.452,163.589,147.745,159.751z" data-original="#000000" class="active-path" data-old_color="#000000" fill="#FFFFFF"/>
	</g>
</g><g>
	<g>
		<path d="M58.948,218.941l-31.896-31.187c-3.003-2.937-7.818-2.881-10.752,0.121c-2.937,3.003-2.882,7.817,0.121,10.753    l31.896,31.187c1.479,1.447,3.397,2.168,5.315,2.168c1.976,0,3.949-0.764,5.437-2.288    C62.006,226.691,61.951,221.878,58.948,218.941z" data-original="#000000" class="active-path" data-old_color="#000000" fill="#FFFFFF"/>
	</g>
</g></g> </svg>
